<svg xmlns="http://www.w3.org/2000/svg" viewBox="0 0 766.77 173.08" class="navbar-brand"><defs><style>.cls-1{fill:#00307b;}</style></defs><g id="Layer_2" data-name="Layer 2"><g id="Layer_1-2" data-name="Layer 1"><path class="cls-1" d="M170.45,86.66c0,59.13-32.8,86.42-85.23,86.42S0,145.79,0,86.66,32.8,0,85.22,0,170.45,27.53,170.45,86.66Zm-61-.24c0-58.65-6.7-81.63-24.18-81.63s-24.17,23-24.17,81.63,6.7,81.87,24.17,81.87S109.4,145.07,109.4,86.42Z"/><path class="cls-1" d="M182.61,125V64c0-2.48-.18-3-1.42-4.6L172.34,46.6v-.35h60.18v.35l-8.85,12.75c-1.24,1.59-1.41,2.12-1.41,4.6v60.18c0,31.51,9.56,40.72,25.49,40.72,15.22,0,25.67-11.86,25.67-39.83V82.71c0-2.83-.18-3.36-1.95-6.19L253.59,46.6v-.35h43.19v.35L279.26,76.52c-1.77,2.83-1.95,3.36-1.95,6.19v42c0,31-11.33,47.8-43.37,47.8C200.48,172.46,182.61,163.43,182.61,125Z"/><path class="cls-1" d="M374.85,156.17l11.33,14.16v.36h-65.5v-.36L332,156.17c1.42-1.77,1.59-2.12,1.59-5.13V50h-4.25c-2.83,0-3.54.36-4.77,2.66L299.26,98.29h-.35v-52H408v52h-.35L382.28,52.62C381,50.32,380.34,50,377.5,50h-4.25V151C373.25,154.05,373.43,154.4,374.85,156.17Z"/><path class="cls-1" d="M460.88,111.57V153c0,2.47.18,3,1.42,4.6L472,170.33v.36H410.08v-.36l9.73-12.74c1.24-1.59,1.42-2.13,1.42-4.6V64c0-2.48-.18-3-1.42-4.6L410.08,46.6v-.35h76.47c21.24,0,41.06,7.43,41.06,30.8,0,20.89-16.1,32.21-44.43,32.39v.35l32.93,6.38.18.17,10.09,38.77c.7,3,1.59,4.07,4.24,7.26l6.91,8v.36H488.32l-13.63-57.35c-.36-1.6-.71-1.77-2.84-1.77Zm0-3.72h9.38c10.09,0,15.4-8.68,15.4-28.32,0-19.48-5.13-29.57-15.22-29.57h-6.55c-2.66,0-3,.18-3,3.19Z"/><path class="cls-1" d="M528.5,170.69v-.36l9.74-12.74c1.23-1.59,1.41-2.13,1.41-4.6V64c0-2.48-.18-3-1.41-4.6L528.5,46.6v-.35h97.18V91.74h-.35L597.89,52.62c-1.42-2.13-2.12-2.66-4.78-2.66h-10.8c-2.65,0-3,.18-3,3.19v54h6.38c2.12,0,2.65-.18,4.42-2l18.77-19.82h.35v47.26h-.35L590.1,112.8c-1.77-1.77-2.3-1.94-4.42-1.94H579.3v52.93c0,3,.36,3.18,3,3.18h14.16c2.66,0,3.37-.53,4.78-2.65L626.74,124h.36v46.73Z"/><path class="cls-1" d="M684.28,153c0,2.47.17,3,1.41,4.6l9.74,12.74v.36h-62v-.36l9.74-12.74c1.24-1.59,1.41-2.13,1.41-4.6V64c0-2.48-.17-3-1.41-4.6L633.47,46.6v-.35h62v.35l-9.74,12.75c-1.24,1.59-1.41,2.12-1.41,4.6Zm32.57,17.7h49.92v-.36l-9.21-9.91a75.25,75.25,0,0,1-5-7.08l-38.41-69,6.2-6.9c3.71-4.07,4.6-4.6,9.91-8.14L765.17,46.6v-.35H705.69v.35l12.4,22.48c1.59,2.83,1.59,3.19-.36,5.49L685.52,111Z"/><path class="cls-1" d="M85.3,72.36a15.49,15.49,0,0,1,6.39,1.38L84.8,29.36l-6,44.45A15.45,15.45,0,0,1,85.3,72.36Z"/><path class="cls-1" d="M85.3,103.36a15.37,15.37,0,0,1-6.67-1.53l6.17,45.53L91.61,102A15.45,15.45,0,0,1,85.3,103.36Z"/><circle class="cls-1" cx="85.3" cy="87.86" r="12.5"/></g></g></svg>
